<?xml version="1.0" standalone="no"?>
<!DOCTYPE svg PUBLIC "-//W3C//DTD SVG 20010904//EN"
 "http://www.w3.org/TR/2001/REC-SVG-20010904/DTD/svg10.dtd">
<svg version="1.0" xmlns="http://www.w3.org/2000/svg"
 width="939.000000pt" height="939.000000pt" viewBox="0 0 939.000000 939.000000"
 preserveAspectRatio="xMidYMid meet">

<g transform="translate(0.000000,939.000000) scale(0.100000,-0.100000)"
fill="#000000" stroke="none">
<path d="M2833 7544 c4 -4 44 -18 89 -31 247 -72 486 -199 683 -365 140 -118
314 -302 383 -407 165 -246 261 -547 265 -825 1 -61 -2 -137 -6 -168 l-8 -57
53 -35 c29 -20 62 -49 73 -66 21 -32 44 -41 365 -136 69 -20 133 -44 144 -53
24 -21 66 -105 66 -132 0 -29 -61 -118 -80 -119 -8 0 -127 34 -265 75 -229 68
-252 77 -278 107 -71 84 -98 107 -131 117 -32 8 -42 6 -94 -24 -103 -61 -98
-53 -84 -127 21 -114 18 -127 -42 -200 -33 -39 -80 -81 -115 -103 l-61 -38 5
-86 4 -86 -10 90 c-15 138 -54 271 -97 333 -20 30 -39 55 -43 58 -4 2 0 -24 9
-57 18 -71 7 -88 -39 -63 -34 17 -34 17 -53 -1 -13 -14 -23 -5 -88 81 -58 76
-94 111 -179 174 -91 68 -117 82 -195 104 -129 38 -244 43 -371 17 -55 -12
-111 -21 -122 -21 -17 0 -21 -6 -21 -31 0 -42 61 -103 117 -118 34 -9 58 -8
131 8 73 16 105 18 173 11 118 -12 139 -20 221 -91 51 -43 90 -88 130 -151 55
-87 58 -96 92 -259 4 -20 -28 -25 -214 -35 -640 -34 -1223 377 -1436 1013 -44
130 -81 321 -90 461 -4 56 -10 105 -14 107 -4 2 -21 -1 -37 -7 -29 -11 -31
-15 -68 -177 -20 -91 -48 -193 -60 -226 -13 -33 -31 -91 -40 -130 -9 -38 -24
-97 -33 -130 -11 -42 -16 -113 -17 -235 -2 -205 -12 -240 -68 -240 -25 0 -49
15 -109 68 -67 58 -84 80 -128 165 -89 175 -132 355 -147 622 -6 114 -8 123
-14 75 -13 -98 -9 -324 6 -436 98 -702 584 -1310 1245 -1557 198 -74 386 -108
590 -108 260 1 403 28 508 97 46 30 67 53 120 130 12 18 12 18 8 -1 -3 -11
-10 -46 -16 -78 -10 -49 -20 -66 -63 -112 -44 -45 -69 -61 -158 -98 -171 -72
-255 -136 -304 -233 -30 -58 -30 -61 -29 -219 0 -88 8 -223 17 -300 9 -77 19
-183 22 -235 7 -107 30 -157 86 -186 48 -24 124 -20 169 10 77 51 84 118 50
456 -22 215 -25 385 -10 442 14 49 52 77 167 124 78 32 110 53 202 131 l110
94 35 107 c20 59 36 118 36 132 0 31 6 39 52 74 l38 28 10 -28 c18 -52 38 -78
80 -109 l42 -30 142 1 c77 1 215 9 305 18 91 9 207 16 259 16 103 0 207 25
264 63 45 31 45 43 -4 69 -43 23 -44 23 -416 21 -311 -2 -378 -5 -410 -18 -53
-23 -206 -21 -245 2 -4 2 25 39 64 81 40 42 90 100 112 127 22 28 45 50 51 50
6 0 45 -8 86 -17 300 -66 339 -73 430 -73 94 0 96 1 168 43 89 53 133 91 182
157 43 58 90 178 91 233 1 20 4 48 8 61 l7 24 35 -31 c41 -36 114 -66 183 -76
37 -6 71 -2 139 16 81 21 95 28 151 79 118 108 152 230 143 509 -4 118 -14
215 -36 340 -75 438 -101 591 -101 601 0 5 -4 8 -9 5 -4 -3 -7 -16 -5 -28 129
-844 137 -928 109 -1098 -22 -137 -46 -190 -107 -245 -77 -69 -179 -88 -265
-48 -55 25 -176 141 -203 192 -13 26 -27 41 -39 41 -11 0 -29 12 -41 28 -42
55 -89 132 -100 167 -6 20 -22 55 -36 78 -63 114 -174 533 -198 752 l-11 100
-50 6 c-27 4 -65 9 -82 13 -40 9 -42 -3 -13 -90 10 -33 55 -188 100 -344 133
-470 160 -549 189 -565 15 -7 35 -24 46 -36 20 -24 20 -24 0 -8 -41 34 -106
58 -334 125 -128 38 -223 70 -211 72 11 2 34 -1 51 -7 l29 -10 0 42 c0 163
-40 389 -101 571 -96 288 -238 522 -454 745 -234 242 -502 400 -800 471 -88
20 -244 37 -232 24z"/>
<path d="M6149 7279 c-92 -90 -228 -110 -373 -53 -33 13 -9 -37 39 -82 120
-113 321 -57 365 101 19 66 10 75 -31 34z"/>
<path d="M2671 7145 c-169 -37 -312 -156 -471 -392 -150 -223 -169 -275 -177
-479 -11 -291 55 -506 229 -746 133 -183 318 -287 523 -295 92 -4 98 -3 81 12
-11 8 -26 15 -33 15 -26 0 -210 87 -273 130 -146 98 -271 255 -328 412 -24 65
-27 88 -27 203 0 158 20 220 97 301 70 74 148 107 253 107 324 0 626 -304 654
-658 l7 -80 13 45 c8 25 15 111 17 196 3 126 7 161 26 214 38 107 108 135 212
86 28 -14 85 -41 126 -60 89 -42 155 -93 192 -148 24 -36 58 -150 58 -197 0
-20 34 -51 56 -51 6 0 19 28 30 63 15 49 19 93 19 212 0 150 0 150 -43 281
-120 366 -396 658 -741 784 -156 57 -359 75 -500 45z"/>
<path d="M6735 6885 c-55 -7 -145 -16 -200 -20 -55 -4 -129 -16 -164 -27 -50
-16 -80 -19 -137 -15 l-74 5 -44 -41 -44 -42 -41 -595 c-23 -327 -47 -643 -53
-702 l-11 -108 -28 0 c-16 0 -29 -4 -29 -10 0 -14 49 -25 61 -13 5 5 47 310
94 679 47 368 88 682 93 697 l7 29 29 -23 c17 -13 47 -24 77 -27 59 -6 237 13
374 39 55 11 142 22 192 26 79 5 103 11 165 42 40 20 78 46 86 58 14 22 12 24
-33 43 -55 24 -162 25 -320 5z"/>
<path d="M7162 6851 c-11 -15 -26 -48 -32 -72 -20 -75 -86 -194 -205 -370 -63
-93 -167 -246 -231 -341 -123 -182 -204 -333 -204 -381 0 -30 18 -34 30 -6 61
132 115 216 310 479 189 255 259 360 315 473 39 78 48 108 53 165 5 79 -5 94
-36 53z"/>
<path d="M4891 6621 l-21 -30 25 -143 c104 -598 145 -765 222 -920 33 -67 43
-45 18 39 -29 97 -64 271 -125 608 -63 353 -84 463 -93 471 -3 3 -14 -8 -26
-25z"/>
<path d="M5543 6315 c0 -22 2 -30 4 -17 2 12 2 30 0 40 -3 9 -5 -1 -4 -23z"/>
<path d="M5553 6190 c0 -25 2 -35 4 -22 2 12 2 32 0 45 -2 12 -4 2 -4 -23z"/>
<path d="M5563 6060 c0 -30 2 -43 4 -27 2 15 2 39 0 55 -2 15 -4 2 -4 -28z"/>
<path d="M6370 5649 c0 -26 42 -78 78 -95 51 -26 211 -23 353 5 57 11 149 27
203 35 58 9 106 21 115 30 8 9 13 17 10 19 -4 5 -70 -2 -279 -29 -162 -21
-310 -16 -339 10 -11 10 -33 20 -48 22 -16 1 -43 5 -60 9 -22 4 -33 2 -33 -6z"/>
<path d="M5517 5582 c-74 -78 -216 -113 -314 -79 -24 8 -43 13 -43 10 0 -17
54 -104 70 -113 33 -18 112 -23 158 -10 82 22 171 132 160 199 -3 22 -4 22
-31 -7z"/>
<path d="M7494 5022 c-37 -33 -71 -102 -339 -692 -396 -871 -393 -864 -427
-868 -16 -2 -28 -7 -28 -12 0 -15 40 -22 55 -10 7 6 174 320 371 698 196 378
372 716 391 751 25 49 33 76 33 118 0 29 -3 53 -7 53 -5 -1 -27 -18 -49 -38z"/>
<path d="M6478 5002 c-15 -16 -58 -41 -95 -56 -104 -42 -159 -82 -205 -148
-52 -74 -96 -206 -104 -314 l-7 -81 27 -5 c29 -6 30 -5 41 87 10 78 60 197 97
231 21 19 64 40 120 57 74 24 92 34 127 73 42 47 55 86 49 144 -4 43 -16 46
-50 12z"/>
<path d="M6514 4843 c4 -15 19 -41 34 -57 40 -42 416 -393 426 -397 5 -2 14 3
19 13 13 20 -81 259 -152 386 -43 77 -48 82 -71 76 -36 -10 -156 -10 -214 -1
l-49 9 7 -29z"/>
<path d="M5570 4775 l-34 -35 -8 -553 c-5 -303 -12 -610 -16 -682 l-7 -130
-28 -3 c-16 -2 -27 -8 -24 -15 5 -15 46 -22 58 -10 9 9 109 1304 109 1409 0
30 -3 54 -7 54 -5 0 -24 -16 -43 -35z"/>
<path d="M5045 4393 c-74 -152 -149 -243 -465 -568 -280 -287 -399 -430 -416
-499 -6 -26 -5 -28 17 -21 13 4 26 12 28 17 13 36 161 195 416 448 415 411
485 510 476 673 -2 44 -16 32 -56 -50z"/>
<path d="M6295 4199 c-66 -11 -140 -26 -164 -34 -25 -8 -77 -15 -116 -15 -56
0 -85 -6 -140 -30 -79 -33 -137 -37 -229 -16 l-58 14 5 -34 c13 -82 96 -144
192 -144 52 0 63 4 102 36 24 20 46 35 47 33 2 -2 31 -116 64 -254 34 -137 61
-242 61 -232 1 10 -21 125 -49 254 -27 130 -49 238 -47 239 2 2 21 -3 42 -11
22 -8 50 -14 61 -15 18 0 23 -8 28 -42 5 -38 23 -249 41 -470 l6 -78 -31 0
c-21 0 -30 -4 -27 -12 2 -7 17 -13 33 -13 l29 0 0 135 c0 74 -4 218 -8 320
l-8 185 152 90 c138 82 184 117 147 114 -7 -1 -67 -10 -133 -20z"/>
<path d="M4960 3338 c-36 -5 -164 -27 -285 -49 -270 -49 -422 -60 -480 -33
-22 10 -49 19 -60 20 -11 0 -39 4 -62 8 -48 9 -52 2 -28 -43 25 -49 87 -71
196 -71 109 0 183 12 449 73 107 25 229 51 270 58 80 13 110 24 110 39 0 11
-20 11 -110 -2z"/>
<path d="M3240 2561 c44 -42 50 -74 18 -95 -13 -8 -22 -5 -42 17 -14 15 -31
27 -39 27 -20 0 -92 -51 -117 -82 -26 -34 -53 -36 -74 -6 -16 22 -16 22 -16
-8 0 -66 86 -143 161 -144 56 0 135 45 164 94 45 76 23 179 -45 219 -48 29
-53 19 -10 -22z"/>
</g>
</svg>
